<svg width="648" height="142" viewBox="0 0 648 142" fill="none" xmlns="http://www.w3.org/2000/svg">
<path d="M63.4 0.399999H89L105.2 47.4L121.6 0.399999H147L122.6 65L140.6 110.2L180.8 -7.62939e-06H210.8L154 142H130.2L105.2 82.4L80.4 142H56.6L0 -7.62939e-06H29.6L70 110.2L87.6 65L63.4 0.399999ZM252.828 -7.62939e-06H280.828L333.028 142H304.628L291.428 106.6H241.828L228.828 142H200.428L252.828 -7.62939e-06ZM286.428 87.2L266.828 28.6L246.428 87.2H286.428ZM386.084 0.399999H411.684L427.884 47.4L444.284 0.399999H469.684L445.284 65L463.284 110.2L503.484 -7.62939e-06H533.484L476.684 142H452.884L427.884 82.4L403.084 142H379.284L322.684 -7.62939e-06H352.284L392.684 110.2L410.284 65L386.084 0.399999ZM647.231 117.8V142H548.631V-7.62939e-06H645.431V24.2H576.231V58.4H636.031V80.8H576.231V117.8H647.231Z" fill="#0D302C"/>
</svg>
